<svg xmlns="http://www.w3.org/2000/svg" viewBox="0 0 64 64" width="64" height="64">
  <circle cx="32" cy="32" r="32" fill="#141414"/>
  <path fill="#FFC933" transform="translate(32 32) rotate(-6) scale(0.08781 -0.08781) translate(-296.54 -203.47)" d="M124 21Q120 29 106.5 37.0Q93 45 93 49Q93 53 88.5 61.5Q84 70 80 74Q75 80 83.0 103.5Q91 127 107.0 161.0Q123 195 142 230Q150 238 158.0 251.0Q166 264 170 268Q170 272 173.0 275.5Q176 279 180 279L188 295Q190 299 200.5 311.0Q211 323 226.0 337.5Q241 352 256.5 365.0Q272 378 282 384Q303 398 325.5 397.0Q348 396 364 383Q367 380 377.5 371.0Q388 362 401.5 351.0Q415 340 425 331L462 298L445 248Q432 208 438.5 178.0Q445 148 457 126Q462 115 470.5 109.0Q479 103 493 101Q501 100 508.0 95.0Q515 90 515 79Q515 55 506.5 44.5Q498 34 488 32Q455 28 425.0 39.0Q395 50 371 96Q367 102 360.5 118.5Q354 135 353 140Q349 135 342.5 127.5Q336 120 330 114Q259 42 208.5 20.5Q158 -1 124 21ZM179 104Q186 103 201.0 111.5Q216 120 241 140Q275 169 297.0 188.0Q319 207 340 237L362 273Q352 296 344.0 303.0Q336 310 328 310Q315 310 297.0 293.5Q279 277 256.5 245.5Q234 214 206 167Q193 145 186.0 124.5Q179 104 179 104Z"/>
</svg>
